<svg xmlns="http://www.w3.org/2000/svg" viewBox="0 0 512 512">
  <rect width="512" height="512" fill="#f7b500" rx="100"/>
  <path fill="#0d1b2a" d="M380.3 148.8l-23-40.2c-5.7-10-16.3-16.1-27.8-16.1H182.5c-11.5 0-22.1 6.2-27.8 16.1l-23 40.2C85.8 152.1 56 186.2 56 228v140c0 22.1 17.9 40 40 40h16v36c0 13.3 10.7 24 24 24h24c13.3 0 24-10.7 24-24v-36h144v36c0 13.3 10.7 24 24 24h24c13.3 0 24-10.7 24-24v-36h16c22.1 0 40-17.9 40-40V228c0-41.8-29.8-75.9-75.7-79.2zM256 144c17.7 0 32 14.3 32 32s-14.3 32-32 32-32-14.3-32-32 14.3-32 32-32zm-96 164c-17.7 0-32-14.3-32-32s14.3-32 32-32 32 14.3 32 32-14.3 32-32 32zm192 0c-17.7 0-32-14.3-32-32s14.3-32 32-32 32 14.3 32 32-14.3 32-32 32z"/>
  <path fill="#0d1b2a" d="M123.6 200h264.8c6.5 0 11.2-5.4 9-11.5-6.6-18.4-24.2-31.5-44.8-31.5H159.4c-20.6 0-38.2 13-44.8 31.5-2.2 6.1 2.5 11.5 9 11.5z"/>
</svg>
